<svg xmlns="http://www.w3.org/2000/svg" xmlns:xlink="http://www.w3.org/1999/xlink" width="500" zoomAndPan="magnify" viewBox="0 0 375 374.999991" height="500" preserveAspectRatio="xMidYMid meet" version="1.0"><defs><g/><clipPath id="bac10247f7"><path d="M 128 153 L 247 153 L 247 168 L 128 168 Z M 128 153 " clip-rule="nonzero"/></clipPath><clipPath id="3042a9962f"><path d="M 128.382812 153.140625 C 167.808594 153.378906 207.234375 153.617188 246.65625 153.855469 C 244.21875 158.316406 241.78125 162.773438 239.339844 167.234375 C 204.792969 167.414062 170.242188 167.59375 135.691406 167.769531 C 133.257812 162.894531 130.816406 158.015625 128.375 153.140625 " clip-rule="nonzero"/></clipPath><clipPath id="acb9461976"><path d="M 0.160156 0.121094 L 118.71875 0.121094 L 118.71875 15 L 0.160156 15 Z M 0.160156 0.121094 " clip-rule="nonzero"/></clipPath><clipPath id="1a4839cc3c"><path d="M 0.382812 0.140625 C 39.808594 0.378906 79.234375 0.617188 118.65625 0.855469 C 116.21875 5.316406 113.78125 9.773438 111.339844 14.234375 C 76.792969 14.414062 42.242188 14.59375 7.691406 14.769531 C 5.257812 9.894531 2.816406 5.015625 0.375 0.140625 " clip-rule="nonzero"/></clipPath><clipPath id="dd5f939e53"><rect x="0" width="119" y="0" height="15"/></clipPath><clipPath id="8d9cf3d6a0"><path d="M 171.121094 176.140625 L 203.878906 176.140625 L 203.878906 242 L 171.121094 242 Z M 171.121094 176.140625 " clip-rule="nonzero"/></clipPath><clipPath id="97bce72465"><path d="M 182.167969 241.179688 L 171.460938 241.179688 L 171.460938 176.15625 L 203.570312 176.15625 L 203.570312 241.71875 L 193.140625 241.71875 L 193.140625 183.917969 L 181.628906 183.917969 Z M 182.167969 241.179688 " clip-rule="nonzero"/></clipPath><clipPath id="253a68cd2d"><path d="M 0.359375 0.140625 L 32.761719 0.140625 L 32.761719 65.921875 L 0.359375 65.921875 Z M 0.359375 0.140625 " clip-rule="nonzero"/></clipPath><clipPath id="f72656c58f"><path d="M 11.167969 65.179688 L 0.460938 65.179688 L 0.460938 0.15625 L 32.570312 0.15625 L 32.570312 65.71875 L 22.140625 65.71875 L 22.140625 7.917969 L 10.628906 7.917969 Z M 11.167969 65.179688 " clip-rule="nonzero"/></clipPath><clipPath id="545803f5f6"><rect x="0" width="33" y="0" height="66"/></clipPath><clipPath id="eee4cd71c8"><path d="M 90.777344 61 L 161.851562 61 L 161.851562 237.945312 L 90.777344 237.945312 Z M 90.777344 61 " clip-rule="nonzero"/></clipPath><clipPath id="5eb164856e"><path d="M 143.902344 176.6875 L 161.828125 176.6875 L 161.828125 237.703125 C 153.894531 235.652344 129.546875 228.289062 110.898438 204.523438 C 89.761719 177.585938 90.503906 148.148438 90.914062 140.660156 C 91.429688 131.714844 93.78125 111.875 107.324219 91.78125 C 118.886719 74.632812 133.140625 65.375 140.863281 61.09375 L 140.863281 69.65625 C 111.03125 88.9375 94.710938 122.933594 99.121094 156.714844 C 104.703125 199.46875 140.699219 220.433594 144.792969 222.722656 C 144.496094 207.386719 144.199219 192.039062 143.902344 176.703125 " clip-rule="nonzero"/></clipPath><clipPath id="9913b6c29d"><path d="M 0.777344 0 L 71.851562 0 L 71.851562 176.839844 L 0.777344 176.839844 Z M 0.777344 0 " clip-rule="nonzero"/></clipPath><clipPath id="bff408caea"><path d="M 53.902344 115.6875 L 71.828125 115.6875 L 71.828125 176.703125 C 63.894531 174.652344 39.546875 167.289062 20.898438 143.523438 C -0.238281 116.585938 0.503906 87.148438 0.914062 79.660156 C 1.429688 70.714844 3.78125 50.875 17.324219 30.78125 C 28.886719 13.632812 43.140625 4.375 50.863281 0.09375 L 50.863281 8.65625 C 21.03125 27.9375 4.710938 61.933594 9.121094 95.714844 C 14.703125 138.46875 50.699219 159.433594 54.792969 161.722656 C 54.496094 146.386719 54.199219 131.039062 53.902344 115.703125 " clip-rule="nonzero"/></clipPath><clipPath id="3c0fd10fc0"><rect x="0" width="72" y="0" height="177"/></clipPath><clipPath id="ba4ad9cd85"><path d="M 213.148438 61 L 284.222656 61 L 284.222656 237.945312 L 213.148438 237.945312 Z M 213.148438 61 " clip-rule="nonzero"/></clipPath><clipPath id="7f8edc6677"><path d="M 231.101562 176.6875 L 213.171875 176.6875 L 213.171875 237.703125 C 221.101562 235.652344 245.457031 228.289062 264.101562 204.523438 C 285.242188 177.585938 284.496094 148.15625 284.082031 140.660156 C 283.566406 131.714844 281.214844 111.875 267.671875 91.78125 C 256.113281 74.632812 241.855469 65.375 234.132812 61.09375 L 234.132812 69.65625 C 263.96875 88.9375 280.289062 122.933594 275.875 156.714844 C 270.292969 199.46875 234.300781 220.433594 230.203125 222.722656 C 230.5 207.386719 230.796875 192.039062 231.097656 176.703125 " clip-rule="nonzero"/></clipPath><clipPath id="08e90f1ad1"><path d="M 0.148438 0 L 71.222656 0 L 71.222656 176.839844 L 0.148438 176.839844 Z M 0.148438 0 " clip-rule="nonzero"/></clipPath><clipPath id="656bdbc605"><path d="M 18.101562 115.6875 L 0.171875 115.6875 L 0.171875 176.703125 C 8.101562 174.652344 32.457031 167.289062 51.101562 143.523438 C 72.242188 116.585938 71.496094 87.15625 71.082031 79.660156 C 70.566406 70.714844 68.214844 50.875 54.671875 30.78125 C 43.113281 13.632812 28.855469 4.375 21.132812 0.09375 L 21.132812 8.65625 C 50.96875 27.9375 67.289062 61.933594 62.875 95.714844 C 57.292969 138.46875 21.300781 159.433594 17.203125 161.722656 C 17.5 146.386719 17.796875 131.039062 18.097656 115.703125 " clip-rule="nonzero"/></clipPath><clipPath id="451f762161"><rect x="0" width="72" y="0" height="177"/></clipPath><clipPath id="fe59922f08"><path d="M 138.367188 3.089844 L 235.398438 3.089844 L 235.398438 147 L 138.367188 147 Z M 138.367188 3.089844 " clip-rule="nonzero"/></clipPath><clipPath id="59221d5a33"><path d="M 161.414062 146.425781 C 162.640625 144.027344 163.160156 141.273438 162.886719 138.59375 C 162.949219 139.414062 164.207031 139.605469 164.804688 139.042969 C 165.398438 138.476562 165.476562 137.578125 165.527344 136.761719 C 165.789062 132.351562 166.046875 127.941406 166.308594 123.527344 C 171.328125 126.386719 174.746094 131.867188 175.105469 137.636719 C 176.160156 129.679688 175.574219 121.507812 173.402344 113.785156 C 174.394531 115.300781 175.898438 117.695312 177.535156 120.765625 C 179.90625 125.214844 181.027344 128.21875 182.128906 128.050781 C 182.910156 127.933594 183.277344 126.296875 183.449219 125.417969 C 184.78125 118.5625 184.433594 105.054688 184.242188 99.597656 C 186.589844 101.859375 190.847656 106.566406 193.40625 113.890625 C 196.101562 121.609375 195.519531 128.28125 195.023438 131.527344 C 197.742188 124.910156 199.679688 121.734375 200.84375 121.992188 C 202.535156 122.378906 202.59375 130.015625 201.011719 144.914062 C 201.398438 144.214844 201.78125 143.515625 202.164062 142.808594 C 203.660156 140.0625 205.121094 137.332031 206.550781 134.613281 C 207.355469 138.609375 208.160156 142.609375 208.960938 146.605469 C 213.457031 143.160156 216.644531 139.785156 218.761719 137.277344 C 225.941406 128.757812 229.28125 120.097656 231.9375 113.035156 C 233.429688 109.058594 234.449219 105.667969 235.097656 103.285156 C 233.027344 104.601562 230.964844 105.917969 228.898438 107.234375 C 230.066406 103.871094 232.136719 96.390625 229.949219 87.46875 C 228.828125 82.882812 226.925781 79.347656 225.347656 76.9375 C 225.675781 84.644531 224.007812 89.734375 222.632812 92.726562 C 221.984375 94.140625 220.714844 96.878906 219.414062 96.703125 C 217.675781 96.46875 217.199219 94.21875 217.144531 92.46875 C 216.839844 82.945312 216.613281 73.789062 216.394531 67.140625 C 216.257812 62.910156 215.269531 56.742188 211.125 49.261719 C 210.046875 53.425781 209.914062 56.796875 210.003906 59.136719 C 210.144531 63.121094 210.640625 64.78125 210.03125 67.648438 C 209.4375 70.4375 207.449219 73.183594 204.625 73.558594 C 207.671875 73.140625 204.296875 50.1875 203.484375 48.125 C 201.929688 44.164062 199.4375 40.664062 197.238281 37.035156 C 190.820312 26.476562 187.574219 15.128906 185.34375 3.097656 C 177.84375 21.410156 180.890625 40.507812 181.890625 59.589844 C 181.957031 60.960938 181.980469 62.457031 181.125 63.53125 C 180.550781 64.253906 179.703125 64.820312 178.902344 64.957031 C 176.007812 65.449219 173.03125 60.699219 172.460938 59.800781 C 168.710938 53.824219 171.332031 51.238281 168.066406 43.636719 C 166.085938 39.015625 162.53125 33.953125 162.207031 34.121094 C 162.1875 34.132812 162.183594 34.164062 162.183594 34.179688 C 160.226562 50.441406 162.988281 63.121094 162.988281 63.121094 C 164.175781 68.589844 165.546875 76.230469 166.316406 85.796875 C 165.402344 82.015625 163.675781 76.527344 160.1875 70.625 C 155.257812 62.273438 148.152344 55.351562 146.550781 56.375 C 144.675781 57.5625 153.550781 67.574219 149.804688 77.015625 C 148.046875 81.453125 144.273438 83.8125 144.445312 89.3125 C 144.539062 92.144531 145.636719 94.796875 144.972656 95.113281 C 144.066406 95.539062 141.820312 90.75 140.226562 91.160156 C 138.238281 91.667969 138.714844 99.933594 138.90625 103.285156 C 139.144531 107.378906 139.445312 112.636719 140.941406 117.902344 C 145.324219 133.390625 158.625 144.226562 161.40625 146.425781 " clip-rule="nonzero"/></clipPath><clipPath id="ce22e7e7c5"><path d="M 0.367188 0.0898438 L 97.199219 0.0898438 L 97.199219 143.640625 L 0.367188 143.640625 Z M 0.367188 0.0898438 " clip-rule="nonzero"/></clipPath><clipPath id="4b51c10662"><path d="M 23.414062 143.425781 C 24.640625 141.027344 25.160156 138.273438 24.886719 135.59375 C 24.949219 136.414062 26.207031 136.605469 26.804688 136.042969 C 27.398438 135.476562 27.476562 134.578125 27.527344 133.761719 C 27.789062 129.351562 28.046875 124.941406 28.308594 120.527344 C 33.328125 123.386719 36.746094 128.867188 37.105469 134.636719 C 38.160156 126.679688 37.574219 118.507812 35.402344 110.785156 C 36.394531 112.300781 37.898438 114.695312 39.535156 117.765625 C 41.90625 122.214844 43.027344 125.21875 44.128906 125.050781 C 44.910156 124.933594 45.277344 123.296875 45.449219 122.417969 C 46.78125 115.5625 46.433594 102.054688 46.242188 96.597656 C 48.589844 98.859375 52.847656 103.566406 55.40625 110.890625 C 58.101562 118.609375 57.519531 125.28125 57.023438 128.527344 C 59.742188 121.910156 61.679688 118.734375 62.84375 118.992188 C 64.535156 119.378906 64.59375 127.015625 63.011719 141.914062 C 63.398438 141.214844 63.78125 140.515625 64.164062 139.808594 C 65.660156 137.0625 67.121094 134.332031 68.550781 131.613281 C 69.355469 135.609375 70.160156 139.609375 70.960938 143.605469 C 75.457031 140.160156 78.644531 136.785156 80.761719 134.277344 C 87.941406 125.757812 91.28125 117.097656 93.9375 110.035156 C 95.429688 106.058594 96.449219 102.667969 97.097656 100.285156 C 95.027344 101.601562 92.964844 102.917969 90.898438 104.234375 C 92.066406 100.871094 94.136719 93.390625 91.949219 84.46875 C 90.828125 79.882812 88.925781 76.347656 87.347656 73.9375 C 87.675781 81.644531 86.007812 86.734375 84.632812 89.726562 C 83.984375 91.140625 82.714844 93.878906 81.414062 93.703125 C 79.675781 93.46875 79.199219 91.21875 79.144531 89.46875 C 78.839844 79.945312 78.613281 70.789062 78.394531 64.140625 C 78.257812 59.910156 77.269531 53.742188 73.125 46.261719 C 72.046875 50.425781 71.914062 53.796875 72.003906 56.136719 C 72.144531 60.121094 72.640625 61.78125 72.03125 64.648438 C 71.4375 67.4375 69.449219 70.183594 66.625 70.558594 C 69.671875 70.140625 66.296875 47.1875 65.484375 45.125 C 63.929688 41.164062 61.4375 37.664062 59.238281 34.035156 C 52.820312 23.476562 49.574219 12.128906 47.34375 0.0976562 C 39.84375 18.410156 42.890625 37.507812 43.890625 56.589844 C 43.957031 57.960938 43.980469 59.457031 43.125 60.53125 C 42.550781 61.253906 41.703125 61.820312 40.902344 61.957031 C 38.007812 62.449219 35.03125 57.699219 34.460938 56.800781 C 30.710938 50.824219 33.332031 48.238281 30.066406 40.636719 C 28.085938 36.015625 24.53125 30.953125 24.207031 31.121094 C 24.1875 31.132812 24.183594 31.164062 24.183594 31.179688 C 22.226562 47.441406 24.988281 60.121094 24.988281 60.121094 C 26.175781 65.589844 27.546875 73.230469 28.316406 82.796875 C 27.402344 79.015625 25.675781 73.527344 22.1875 67.625 C 17.257812 59.273438 10.152344 52.351562 8.550781 53.375 C 6.675781 54.5625 15.550781 64.574219 11.804688 74.015625 C 10.046875 78.453125 6.273438 80.8125 6.445312 86.3125 C 6.539062 89.144531 7.636719 91.796875 6.972656 92.113281 C 6.066406 92.539062 3.820312 87.75 2.226562 88.160156 C 0.238281 88.667969 0.714844 96.933594 0.90625 100.285156 C 1.144531 104.378906 1.445312 109.636719 2.941406 114.902344 C 7.324219 130.390625 20.625 141.226562 23.40625 143.425781 " clip-rule="nonzero"/></clipPath><clipPath id="d9602abdc3"><rect x="0" width="98" y="0" height="144"/></clipPath></defs><rect x="-37.5" width="450" fill="#ffffff" y="-37.499999" height="449.999989" fill-opacity="1"/><g clip-path="url(#bac10247f7)"><g clip-path="url(#3042a9962f)"><g transform="matrix(1, 0, 0, 1, 128, 153)"><g clip-path="url(#dd5f939e53)"><g clip-path="url(#acb9461976)"><g clip-path="url(#1a4839cc3c)"><rect x="-210.5" width="540" fill="#4a9fda" height="539.999987" y="-235.499998" fill-opacity="1"/></g></g></g></g></g></g><g clip-path="url(#8d9cf3d6a0)"><g clip-path="url(#97bce72465)"><g transform="matrix(1, 0, 0, 1, 171, 176)"><g clip-path="url(#545803f5f6)"><g clip-path="url(#253a68cd2d)"><g clip-path="url(#f72656c58f)"><rect x="-253.5" width="540" fill="#4a9fda" height="539.999987" y="-258.499998" fill-opacity="1"/></g></g></g></g></g></g><g clip-path="url(#eee4cd71c8)"><g clip-path="url(#5eb164856e)"><g transform="matrix(1, 0, 0, 1, 90, 61)"><g clip-path="url(#3c0fd10fc0)"><g clip-path="url(#9913b6c29d)"><g clip-path="url(#bff408caea)"><rect x="-172.5" width="540" fill="#4a9fda" height="539.999987" y="-143.499998" fill-opacity="1"/></g></g></g></g></g></g><g clip-path="url(#ba4ad9cd85)"><g clip-path="url(#7f8edc6677)"><g transform="matrix(1, 0, 0, 1, 213, 61)"><g clip-path="url(#451f762161)"><g clip-path="url(#08e90f1ad1)"><g clip-path="url(#656bdbc605)"><rect x="-295.5" width="540" fill="#4a9fda" height="539.999987" y="-143.499998" fill-opacity="1"/></g></g></g></g></g></g><g clip-path="url(#fe59922f08)"><g clip-path="url(#59221d5a33)"><g transform="matrix(1, 0, 0, 1, 138, 3)"><g clip-path="url(#d9602abdc3)"><g clip-path="url(#ce22e7e7c5)"><g clip-path="url(#4b51c10662)"><rect x="-220.5" width="540" fill="#f6951d" height="539.999987" y="-85.499998" fill-opacity="1"/></g></g></g></g></g></g><g fill="#4a9fda" fill-opacity="1"><g transform="translate(82.731899, 298.800331)"><g><path d="M 32.640625 -30.703125 C 32.753906 -30.210938 32.882812 -29.25 33.03125 -27.8125 C 33.1875 -26.375 33.265625 -25.328125 33.265625 -24.671875 C 33.265625 -24.421875 33.207031 -24.109375 33.09375 -23.734375 C 32.363281 -23.753906 31.75 -23.820312 31.25 -23.9375 C 29.96875 -25.90625 29.066406 -27.140625 28.546875 -27.640625 C 27.578125 -28.585938 26.328125 -29.390625 24.796875 -30.046875 C 23.671875 -30.523438 22.375 -30.765625 20.90625 -30.765625 C 18.101562 -30.765625 15.632812 -29.503906 13.5 -26.984375 C 11.363281 -24.460938 10.296875 -20.710938 10.296875 -15.734375 C 10.296875 -13.398438 10.707031 -11.128906 11.53125 -8.921875 C 12.363281 -6.722656 13.613281 -4.992188 15.28125 -3.734375 C 16.945312 -2.484375 18.90625 -1.859375 21.15625 -1.859375 C 22.25 -1.859375 23.410156 -2.003906 24.640625 -2.296875 C 25.265625 -2.429688 25.769531 -2.703125 26.15625 -3.109375 C 26.425781 -3.367188 26.601562 -3.769531 26.6875 -4.3125 C 26.820312 -5.289062 26.890625 -6.675781 26.890625 -8.46875 C 26.890625 -10.21875 26.863281 -11.421875 26.8125 -12.078125 C 26.695312 -12.328125 26.582031 -12.488281 26.46875 -12.5625 C 26.363281 -12.644531 26.023438 -12.769531 25.453125 -12.9375 L 23.203125 -13.546875 C 22.710938 -13.660156 22.410156 -13.800781 22.296875 -13.96875 C 22.265625 -14.1875 22.25 -14.347656 22.25 -14.453125 C 22.25 -14.691406 22.304688 -15.019531 22.421875 -15.4375 C 22.722656 -15.539062 22.929688 -15.59375 23.046875 -15.59375 C 24.878906 -15.59375 26.472656 -15.523438 27.828125 -15.390625 C 28.296875 -15.347656 28.804688 -15.328125 29.359375 -15.328125 L 33.34375 -15.390625 L 35.03125 -15.4375 C 35.238281 -15.457031 35.800781 -15.441406 36.71875 -15.390625 C 36.738281 -14.953125 36.75 -14.582031 36.75 -14.28125 C 36.75 -14.09375 36.691406 -13.878906 36.578125 -13.640625 C 36.285156 -13.472656 35.796875 -13.265625 35.109375 -13.015625 C 34.421875 -12.765625 34.035156 -12.597656 33.953125 -12.515625 C 33.816406 -12.378906 33.722656 -12.164062 33.671875 -11.875 C 33.617188 -11.59375 33.59375 -10.59375 33.59375 -8.875 C 33.59375 -6.894531 33.585938 -5.710938 33.578125 -5.328125 C 33.503906 -4.078125 33.46875 -3.367188 33.46875 -3.203125 C 33.46875 -2.578125 33.382812 -2.191406 33.21875 -2.046875 C 32.75 -1.578125 31.289062 -1.039062 28.84375 -0.4375 C 26.394531 0.15625 23.546875 0.453125 20.296875 0.453125 C 18.035156 0.453125 16.066406 0.273438 14.390625 -0.078125 C 12.710938 -0.441406 11.285156 -0.976562 10.109375 -1.6875 C 8.535156 -2.632812 7.179688 -3.78125 6.046875 -5.125 C 4.921875 -6.46875 4.082031 -7.921875 3.53125 -9.484375 C 2.757812 -11.703125 2.375 -13.914062 2.375 -16.125 C 2.375 -18.59375 2.945312 -21.097656 4.09375 -23.640625 C 4.925781 -25.472656 6.101562 -27.125 7.625 -28.59375 C 9.144531 -30.0625 11.046875 -31.234375 13.328125 -32.109375 C 15.617188 -32.984375 18.113281 -33.421875 20.8125 -33.421875 C 21.144531 -33.421875 21.691406 -33.378906 22.453125 -33.296875 C 24.503906 -33.296875 26.421875 -33.035156 28.203125 -32.515625 C 29.984375 -32.003906 31.460938 -31.398438 32.640625 -30.703125 Z M 32.640625 -30.703125 "/></g></g></g><g fill="#4a9fda" fill-opacity="1"><g transform="translate(120.380967, 298.800331)"><g><path d="M 1.609375 -0.25 C 1.609375 -0.757812 1.660156 -1.359375 1.765625 -2.046875 L 4.921875 -2.59375 C 5.304688 -2.675781 5.769531 -2.8125 6.3125 -3 L 6.640625 -9.3125 C 6.566406 -11.582031 6.53125 -13.28125 6.53125 -14.40625 L 6.5625 -15 C 6.613281 -15.695312 6.640625 -17.429688 6.640625 -20.203125 L 6.578125 -20.9375 L 6.640625 -23.046875 L 6.609375 -25.25 L 6.609375 -26.328125 C 6.609375 -27.304688 6.53125 -28.453125 6.375 -29.765625 C 6.363281 -29.878906 6.296875 -30.082031 6.171875 -30.375 C 6.046875 -30.414062 5.898438 -30.445312 5.734375 -30.46875 C 5.578125 -30.488281 5.414062 -30.515625 5.25 -30.546875 C 4.59375 -30.660156 3.894531 -30.742188 3.15625 -30.796875 L 2.78125 -30.890625 C 2.320312 -30.941406 1.972656 -31.007812 1.734375 -31.09375 C 1.691406 -31.582031 1.671875 -31.894531 1.671875 -32.03125 C 1.671875 -32.226562 1.71875 -32.503906 1.8125 -32.859375 C 2.15625 -32.929688 2.628906 -32.96875 3.234375 -32.96875 C 3.835938 -32.96875 4.253906 -32.972656 4.484375 -32.984375 C 6.535156 -32.765625 8.0625 -32.648438 9.0625 -32.640625 C 9.507812 -32.640625 9.960938 -32.625 10.421875 -32.59375 C 10.890625 -32.570312 11.300781 -32.5625 11.65625 -32.5625 C 12.207031 -32.5625 13.5625 -32.644531 15.71875 -32.8125 C 16.070312 -32.894531 16.457031 -32.9375 16.875 -32.9375 C 17.5 -32.9375 18.019531 -32.90625 18.4375 -32.84375 C 18.457031 -32.488281 18.46875 -32.234375 18.46875 -32.078125 C 18.46875 -31.816406 18.429688 -31.488281 18.359375 -31.09375 L 13.921875 -30.390625 C 13.554688 -30.222656 13.375 -29.976562 13.375 -29.65625 L 13.4375 -28.734375 L 13.46875 -28.328125 L 13.4375 -27.21875 L 13.390625 -26.359375 L 13.390625 -26.15625 C 13.410156 -25.96875 13.421875 -25.804688 13.421875 -25.671875 L 13.390625 -22.46875 C 13.410156 -22.164062 13.421875 -21.941406 13.421875 -21.796875 C 13.421875 -21.710938 13.40625 -21.441406 13.375 -20.984375 C 13.351562 -20.710938 13.34375 -20.4375 13.34375 -20.15625 C 13.34375 -19.90625 13.367188 -19.304688 13.421875 -18.359375 C 13.890625 -18.273438 14.285156 -18.222656 14.609375 -18.203125 L 18.34375 -18.140625 L 20.15625 -18.140625 L 24.6875 -18.109375 L 29.109375 -18.234375 C 29.679688 -18.234375 30.285156 -18.289062 30.921875 -18.40625 C 30.953125 -18.976562 30.976562 -20.382812 31 -22.625 L 31.046875 -23.765625 L 30.890625 -28.046875 L 30.71875 -29.8125 C 30.664062 -29.925781 30.550781 -30.035156 30.375 -30.140625 C 29.78125 -30.472656 28.601562 -30.851562 26.84375 -31.28125 C 26.519531 -31.34375 26.210938 -31.425781 25.921875 -31.53125 C 25.960938 -32.113281 26.03125 -32.59375 26.125 -32.96875 C 26.5 -32.976562 26.726562 -32.984375 26.8125 -32.984375 L 29.265625 -32.96875 C 30.828125 -32.757812 32.414062 -32.65625 34.03125 -32.65625 C 34.394531 -32.65625 34.6875 -32.664062 34.90625 -32.6875 L 38.1875 -32.796875 C 38.488281 -32.804688 38.78125 -32.820312 39.0625 -32.84375 C 39.675781 -32.976562 40.300781 -33.046875 40.9375 -33.046875 C 41.425781 -33.046875 42.015625 -33.019531 42.703125 -32.96875 C 42.679688 -32.3125 42.640625 -31.710938 42.578125 -31.171875 C 41.023438 -30.859375 40.007812 -30.628906 39.53125 -30.484375 C 39.050781 -30.335938 38.570312 -30.140625 38.09375 -29.890625 L 37.9375 -29.390625 L 37.9375 -28.953125 L 37.953125 -28.296875 L 37.9375 -27.96875 C 37.90625 -27.613281 37.890625 -27.347656 37.890625 -27.171875 L 37.890625 -26.53125 C 37.898438 -25.78125 37.90625 -25.359375 37.90625 -25.265625 L 37.90625 -22.0625 L 37.9375 -19.65625 L 37.890625 -16.4375 C 37.867188 -15.695312 37.890625 -14.1875 37.953125 -11.90625 L 37.953125 -8.328125 L 38.015625 -5.34375 C 38.015625 -4.789062 37.992188 -4.117188 37.953125 -3.328125 C 38.304688 -3.222656 38.632812 -3.140625 38.9375 -3.078125 C 40.519531 -2.742188 41.71875 -2.398438 42.53125 -2.046875 L 42.59375 -0.28125 C 41.925781 -0.257812 41.535156 -0.25 41.421875 -0.25 C 40.609375 -0.25 39.679688 -0.300781 38.640625 -0.40625 C 37.265625 -0.550781 35.046875 -0.625 31.984375 -0.625 C 30.609375 -0.625 28.828125 -0.515625 26.640625 -0.296875 C 26.398438 -0.296875 26.113281 -0.347656 25.78125 -0.453125 C 25.789062 -1.222656 25.832031 -1.769531 25.90625 -2.09375 L 27.84375 -2.546875 L 29.890625 -2.875 C 30.085938 -2.925781 30.347656 -3.003906 30.671875 -3.109375 C 30.859375 -4.460938 30.957031 -6.722656 30.96875 -9.890625 L 31 -12.03125 C 30.894531 -12.925781 30.84375 -13.992188 30.84375 -15.234375 C 30.226562 -15.285156 29.554688 -15.316406 28.828125 -15.328125 L 17.125 -15.46875 L 16.90625 -15.484375 L 16.71875 -15.515625 C 16.601562 -15.515625 16.46875 -15.503906 16.3125 -15.484375 C 15.875 -15.472656 15.503906 -15.46875 15.203125 -15.46875 L 14.5 -15.46875 C 14.1875 -15.46875 13.828125 -15.40625 13.421875 -15.28125 L 13.3125 -13.390625 L 13.3125 -13.0625 C 13.351562 -12.613281 13.375 -12.320312 13.375 -12.1875 L 13.375 -4.359375 C 13.375 -3.921875 13.394531 -3.476562 13.4375 -3.03125 L 13.703125 -2.875 L 17.40625 -2.296875 C 17.59375 -2.222656 17.734375 -2.179688 17.828125 -2.171875 C 18.046875 -2.117188 18.234375 -2.039062 18.390625 -1.9375 C 18.441406 -1.550781 18.46875 -1.289062 18.46875 -1.15625 C 18.46875 -0.9375 18.429688 -0.632812 18.359375 -0.25 C 17.753906 -0.238281 17.242188 -0.234375 16.828125 -0.234375 C 16.453125 -0.234375 16.109375 -0.238281 15.796875 -0.25 C 15.640625 -0.25 15.492188 -0.257812 15.359375 -0.28125 L 11.796875 -0.421875 C 10.960938 -0.515625 9.785156 -0.5625 8.265625 -0.5625 L 7.75 -0.53125 C 7.039062 -0.5 6.625 -0.472656 6.5 -0.453125 C 5.457031 -0.316406 3.828125 -0.25 1.609375 -0.25 Z M 1.609375 -0.25 "/></g></g></g><g fill="#4a9fda" fill-opacity="1"><g transform="translate(165.040377, 298.800331)"><g><path d="M 2.0625 -0.15625 L 2.0625 -1.96875 C 2.40625 -2.070312 2.960938 -2.210938 3.734375 -2.390625 C 4.828125 -2.660156 5.640625 -2.941406 6.171875 -3.234375 C 6.484375 -3.753906 6.640625 -4.472656 6.640625 -5.390625 L 6.609375 -8.375 L 6.65625 -14.125 L 6.640625 -15.484375 C 6.753906 -18.816406 6.8125 -20.53125 6.8125 -20.625 L 6.765625 -23.984375 L 6.828125 -25.34375 L 6.703125 -28.21875 L 6.6875 -29.3125 C 6.664062 -29.476562 6.601562 -29.742188 6.5 -30.109375 C 5.8125 -30.429688 4.695312 -30.632812 3.15625 -30.71875 C 2.78125 -30.738281 2.484375 -30.765625 2.265625 -30.796875 L 2.1875 -33.015625 L 9.40625 -32.71875 C 10.300781 -32.675781 10.859375 -32.65625 11.078125 -32.65625 C 12.066406 -32.65625 13.65625 -32.722656 15.84375 -32.859375 C 17.070312 -32.941406 17.84375 -32.992188 18.15625 -33.015625 C 18.175781 -32.691406 18.1875 -32.421875 18.1875 -32.203125 C 18.1875 -31.921875 18.171875 -31.550781 18.140625 -31.09375 C 17.460938 -30.863281 16.691406 -30.640625 15.828125 -30.421875 C 14.960938 -30.210938 14.253906 -30 13.703125 -29.78125 C 13.597656 -29.34375 13.546875 -28.710938 13.546875 -27.890625 C 13.546875 -27.171875 13.570312 -26.582031 13.625 -26.125 C 13.570312 -23.289062 13.546875 -21.109375 13.546875 -19.578125 L 13.5625 -12.921875 L 13.5 -9.53125 L 13.546875 -4.484375 L 13.515625 -3.53125 C 13.515625 -3.394531 13.550781 -3.203125 13.625 -2.953125 C 14.644531 -2.734375 15.578125 -2.582031 16.421875 -2.5 C 16.566406 -2.476562 17.078125 -2.410156 17.953125 -2.296875 C 18.023438 -1.785156 18.0625 -1.363281 18.0625 -1.03125 C 18.0625 -0.84375 18.050781 -0.554688 18.03125 -0.171875 C 17.8125 -0.171875 17.644531 -0.164062 17.53125 -0.15625 C 16.988281 -0.113281 16.675781 -0.09375 16.59375 -0.09375 C 16.476562 -0.09375 16.257812 -0.117188 15.9375 -0.171875 C 15.707031 -0.210938 14.59375 -0.332031 12.59375 -0.53125 L 8.125 -0.578125 C 7.226562 -0.578125 5.929688 -0.492188 4.234375 -0.328125 C 3.128906 -0.222656 2.40625 -0.164062 2.0625 -0.15625 Z M 2.0625 -0.15625 "/></g></g></g><g fill="#4a9fda" fill-opacity="1"><g transform="translate(185.491414, 298.800331)"><g><path d="M 0.28125 -30.828125 L 0.171875 -32.59375 L 2.328125 -32.59375 L 3.046875 -32.609375 C 4.054688 -32.660156 4.753906 -32.6875 5.140625 -32.6875 C 5.347656 -32.6875 5.9375 -32.671875 6.90625 -32.640625 C 7.125 -32.617188 7.3125 -32.609375 7.46875 -32.609375 C 7.613281 -32.609375 8.140625 -32.625 9.046875 -32.65625 C 9.960938 -32.695312 10.476562 -32.71875 10.59375 -32.71875 C 10.78125 -32.71875 11.039062 -32.707031 11.375 -32.6875 C 13.96875 -30.332031 16.078125 -28.304688 17.703125 -26.609375 C 19.335938 -24.910156 25.289062 -18.96875 35.5625 -8.78125 L 35.5625 -9.40625 L 35.46875 -12.328125 C 35.414062 -14.046875 35.347656 -15.40625 35.265625 -16.40625 C 35.179688 -17.40625 35.128906 -18.597656 35.109375 -19.984375 C 35.085938 -21.367188 35.03125 -22.628906 34.9375 -23.765625 C 34.726562 -25.960938 34.625 -27.226562 34.625 -27.5625 C 34.613281 -28.65625 34.5 -29.320312 34.28125 -29.5625 C 33.925781 -29.925781 33.117188 -30.203125 31.859375 -30.390625 C 30.929688 -30.546875 30.238281 -30.738281 29.78125 -30.96875 L 29.8125 -32.46875 L 30.46875 -32.53125 L 35.4375 -32.6875 L 40.984375 -32.84375 C 41.359375 -32.851562 41.710938 -32.859375 42.046875 -32.859375 L 42.078125 -31.21875 C 41.679688 -31.019531 41.285156 -30.867188 40.890625 -30.765625 C 39.804688 -30.515625 39.179688 -30.335938 39.015625 -30.234375 C 38.160156 -29.753906 37.695312 -29.460938 37.625 -29.359375 C 37.476562 -29.160156 37.40625 -28.847656 37.40625 -28.421875 C 37.40625 -28.328125 37.421875 -27.972656 37.453125 -27.359375 C 37.472656 -27.054688 37.484375 -26.351562 37.484375 -25.25 C 37.492188 -22.8125 37.5625 -20.882812 37.6875 -19.46875 C 37.71875 -19.019531 37.742188 -18.507812 37.765625 -17.9375 L 38.03125 -9.078125 C 38.050781 -8.453125 38.0625 -8.015625 38.0625 -7.765625 L 38.0625 -4.671875 L 38.140625 -3.359375 L 38.0625 -2 C 38.125 -1.300781 38.15625 -0.882812 38.15625 -0.75 L 38.15625 0.578125 L 35.265625 0.6875 L 32.265625 -2.421875 L 26.125 -8.5 L 21.84375 -12.78125 L 18.6875 -16.015625 C 16.632812 -18.035156 14.769531 -19.8125 13.09375 -21.34375 L 8.984375 -25.046875 L 9.203125 -15.65625 C 9.222656 -15.09375 9.234375 -14.503906 9.234375 -13.890625 L 9.203125 -12.109375 L 9.359375 -8.796875 C 9.410156 -7.421875 9.503906 -5.925781 9.640625 -4.3125 C 9.671875 -3.875 9.710938 -3.566406 9.765625 -3.390625 C 9.816406 -3.210938 9.914062 -2.957031 10.0625 -2.625 C 10.71875 -2.382812 12.148438 -2.207031 14.359375 -2.09375 C 14.503906 -2.0625 14.71875 -2.003906 15 -1.921875 L 15.109375 0.125 L 14.125 0.15625 C 13.582031 0.15625 11.882812 0.0234375 9.03125 -0.234375 C 6.351562 -0.191406 4.566406 -0.132812 3.671875 -0.0625 C 2.785156 0 2.300781 0.03125 2.21875 0.03125 C 2.019531 0.03125 1.742188 -0.00390625 1.390625 -0.078125 C 1.359375 -0.460938 1.34375 -0.796875 1.34375 -1.078125 C 1.34375 -1.265625 1.347656 -1.570312 1.359375 -2 C 1.828125 -2.082031 2.210938 -2.125 2.515625 -2.125 C 2.617188 -2.125 2.945312 -2.101562 3.5 -2.0625 C 4.914062 -2.0625 5.753906 -2.164062 6.015625 -2.375 C 6.273438 -2.59375 6.421875 -3.164062 6.453125 -4.09375 C 6.578125 -6.757812 6.640625 -8.390625 6.640625 -8.984375 L 6.640625 -10.359375 L 6.6875 -18.5625 L 6.609375 -23.6875 C 6.585938 -25.632812 6.460938 -26.988281 6.234375 -27.75 C 6.128906 -28.132812 5.9375 -28.46875 5.65625 -28.75 C 5.0625 -29.351562 4.40625 -29.804688 3.6875 -30.109375 C 3.25 -30.296875 2.113281 -30.535156 0.28125 -30.828125 Z M 0.28125 -30.828125 "/></g></g></g><g fill="#4a9fda" fill-opacity="1"><g transform="translate(229.066484, 298.800331)"><g><path d="M 1.03125 -32.8125 C 1.988281 -32.757812 2.820312 -32.6875 3.53125 -32.59375 C 4.863281 -32.40625 6.398438 -32.3125 8.140625 -32.3125 C 8.753906 -32.3125 10.3125 -32.363281 12.8125 -32.46875 C 16.5625 -32.613281 19.953125 -32.6875 22.984375 -32.6875 L 27.546875 -32.734375 C 28.566406 -32.734375 30.078125 -32.609375 32.078125 -32.359375 C 32.378906 -32.023438 32.53125 -31.570312 32.53125 -31 L 32.53125 -25.796875 L 32.59375 -24.765625 C 32.59375 -24.671875 32.582031 -24.519531 32.5625 -24.3125 L 31.53125 -24.265625 C 31.394531 -24.265625 31.109375 -24.28125 30.671875 -24.3125 C 30.515625 -24.644531 30.3125 -25.140625 30.0625 -25.796875 L 29.0625 -27.59375 C 28.664062 -28.351562 28.125 -29.128906 27.4375 -29.921875 C 27.019531 -30.035156 26.484375 -30.097656 25.828125 -30.109375 C 25.660156 -30.128906 25.148438 -30.171875 24.296875 -30.234375 C 22.722656 -30.367188 21.039062 -30.4375 19.25 -30.4375 C 17.195312 -30.4375 15.363281 -30.40625 13.75 -30.34375 C 13.695312 -29.925781 13.671875 -28.269531 13.671875 -25.375 L 13.71875 -21.140625 L 13.71875 -17.953125 C 14.144531 -17.910156 14.507812 -17.890625 14.8125 -17.890625 C 17.820312 -17.890625 19.960938 -17.945312 21.234375 -18.0625 C 22.515625 -18.175781 23.304688 -18.335938 23.609375 -18.546875 C 23.910156 -18.753906 24.179688 -19.125 24.421875 -19.65625 C 24.566406 -20.019531 24.859375 -21.253906 25.296875 -23.359375 L 25.625 -23.375 L 27.09375 -23.359375 C 27.15625 -21.859375 27.1875 -20.722656 27.1875 -19.953125 C 27.1875 -18.179688 27.171875 -17.046875 27.140625 -16.546875 C 27.117188 -16.046875 27.109375 -15.648438 27.109375 -15.359375 C 27.109375 -14.898438 27.132812 -14.171875 27.1875 -13.171875 C 27.238281 -12.171875 27.265625 -11.429688 27.265625 -10.953125 L 27.265625 -10.390625 L 25.46875 -10.390625 C 25.40625 -10.660156 25.28125 -11.21875 25.09375 -12.0625 C 24.757812 -13.625 24.457031 -14.597656 24.1875 -14.984375 C 23.988281 -15.285156 23.65625 -15.507812 23.1875 -15.65625 C 22.84375 -15.78125 21.597656 -15.84375 19.453125 -15.84375 C 16.910156 -15.84375 15 -15.773438 13.71875 -15.640625 C 13.707031 -15.203125 13.703125 -14.914062 13.703125 -14.78125 C 13.703125 -12.78125 13.734375 -11.113281 13.796875 -9.78125 L 13.75 -4.34375 C 13.75 -3.695312 13.972656 -3.257812 14.421875 -3.03125 C 15.117188 -2.675781 17.234375 -2.5 20.765625 -2.5 C 23.097656 -2.5 25.078125 -2.675781 26.703125 -3.03125 C 27.835938 -3.28125 28.832031 -3.84375 29.6875 -4.71875 C 30.832031 -5.84375 31.78125 -7.421875 32.53125 -9.453125 C 33.050781 -9.503906 33.484375 -9.53125 33.828125 -9.53125 C 34.003906 -9.53125 34.28125 -9.523438 34.65625 -9.515625 C 34.601562 -9.085938 34.5625 -8.734375 34.53125 -8.453125 L 34.375 -7.6875 L 33.453125 -2.921875 L 32.984375 -0.046875 C 31.898438 0.00390625 31.035156 0.03125 30.390625 0.03125 C 29.453125 0.03125 26.941406 -0.0546875 22.859375 -0.234375 C 19.972656 -0.347656 16.503906 -0.40625 12.453125 -0.40625 C 10.441406 -0.40625 7.960938 -0.320312 5.015625 -0.15625 L 3.953125 -0.15625 L 0.90625 -0.046875 L 0.90625 -1.796875 C 1.226562 -1.878906 1.867188 -1.96875 2.828125 -2.0625 C 4.578125 -2.269531 5.785156 -2.539062 6.453125 -2.875 C 6.640625 -3.363281 6.734375 -3.976562 6.734375 -4.71875 C 6.734375 -5 6.722656 -5.484375 6.703125 -6.171875 L 6.734375 -6.96875 L 6.65625 -16.46875 L 6.6875 -19.328125 L 6.5625 -23.359375 L 6.578125 -26.203125 L 6.359375 -29.328125 C 6.359375 -29.410156 6.34375 -29.582031 6.3125 -29.84375 C 6.132812 -30.019531 5.878906 -30.132812 5.546875 -30.1875 C 5.359375 -30.21875 5.109375 -30.269531 4.796875 -30.34375 C 3.835938 -30.539062 2.910156 -30.660156 2.015625 -30.703125 C 1.691406 -30.710938 1.320312 -30.742188 0.90625 -30.796875 Z M 1.03125 -32.8125 "/></g></g></g><g fill="#4a9fda" fill-opacity="1"><g transform="translate(265.656436, 298.800331)"><g><path d="M 21.3125 -32.078125 C 21.476562 -31.503906 21.628906 -30.640625 21.765625 -29.484375 C 21.960938 -27.753906 22.0625 -26.410156 22.0625 -25.453125 C 22.0625 -25.148438 22.03125 -24.820312 21.96875 -24.46875 L 21.71875 -24.390625 L 19.90625 -24.515625 L 19.59375 -24.5625 C 18.851562 -26.78125 18.113281 -28.285156 17.375 -29.078125 C 16.101562 -30.421875 14.597656 -31.09375 12.859375 -31.09375 C 11.210938 -31.09375 9.90625 -30.660156 8.9375 -29.796875 C 7.96875 -28.929688 7.484375 -27.859375 7.484375 -26.578125 C 7.484375 -25.503906 7.960938 -24.472656 8.921875 -23.484375 C 9.867188 -22.492188 11.875 -21.539062 14.9375 -20.625 C 15.957031 -20.320312 17.191406 -19.832031 18.640625 -19.15625 C 20.097656 -18.488281 21.207031 -17.757812 21.96875 -16.96875 C 22.976562 -15.925781 23.671875 -14.921875 24.046875 -13.953125 C 24.429688 -12.992188 24.625 -11.789062 24.625 -10.34375 C 24.625 -8.757812 24.328125 -7.203125 23.734375 -5.671875 C 23.410156 -4.867188 22.898438 -4.101562 22.203125 -3.375 C 21.691406 -2.875 20.90625 -2.28125 19.84375 -1.59375 C 18.789062 -0.914062 17.695312 -0.425781 16.5625 -0.125 C 15.425781 0.175781 13.96875 0.328125 12.1875 0.328125 C 11.007812 0.328125 9.601562 0.160156 7.96875 -0.171875 L 4.9375 -1.0625 C 4.101562 -1.289062 3.578125 -1.5 3.359375 -1.6875 C 3.273438 -1.757812 3.195312 -1.921875 3.125 -2.171875 L 3.125 -2.453125 C 3.125 -2.628906 3.082031 -3.78125 3 -5.90625 C 2.96875 -7 2.953125 -7.769531 2.953125 -8.21875 L 2.953125 -9.1875 L 5.265625 -9.234375 C 6.078125 -7.367188 6.597656 -6.242188 6.828125 -5.859375 C 7.359375 -4.992188 7.9375 -4.296875 8.5625 -3.765625 C 9.195312 -3.234375 9.945312 -2.8125 10.8125 -2.5 C 11.6875 -2.195312 12.640625 -2.046875 13.671875 -2.046875 C 14.578125 -2.046875 15.578125 -2.238281 16.671875 -2.625 C 17.765625 -3.007812 18.640625 -3.644531 19.296875 -4.53125 C 19.960938 -5.414062 20.296875 -6.359375 20.296875 -7.359375 C 20.296875 -8.609375 19.71875 -9.765625 18.5625 -10.828125 C 17.851562 -11.472656 15.953125 -12.34375 12.859375 -13.4375 C 9.765625 -14.53125 7.617188 -15.503906 6.421875 -16.359375 C 5.234375 -17.222656 4.296875 -18.375 3.609375 -19.8125 C 2.921875 -21.25 2.578125 -22.632812 2.578125 -23.96875 C 2.578125 -26.632812 3.535156 -28.898438 5.453125 -30.765625 C 7.367188 -32.640625 10.191406 -33.578125 13.921875 -33.578125 C 14.734375 -33.578125 15.925781 -33.429688 17.5 -33.140625 C 18.457031 -32.972656 19.726562 -32.617188 21.3125 -32.078125 Z M 21.3125 -32.078125 "/></g></g></g><g fill="#4a9fda" fill-opacity="1"><g transform="translate(82.731899, 334.800328)"><g><path d="M 0.828125 0 L 0.859375 -1 C 1.066406 -1.039062 1.40625 -1.109375 1.875 -1.203125 C 2.34375 -1.296875 2.8125 -1.40625 3.28125 -1.53125 L 3.546875 -1.6875 C 3.640625 -2.0625 3.6875 -2.441406 3.6875 -2.828125 L 3.6875 -2.921875 L 3.640625 -6.125 L 3.65625 -7.46875 L 3.59375 -9.453125 L 3.625 -11.8125 L 3.453125 -16.453125 C 3.316406 -16.585938 2.867188 -16.71875 2.109375 -16.84375 C 1.921875 -16.882812 1.648438 -16.957031 1.296875 -17.0625 L 0.96875 -17.15625 L 0.96875 -18.125 L 2.796875 -18.0625 C 3.910156 -17.945312 5.546875 -17.890625 7.703125 -17.890625 C 8.785156 -17.890625 9.914062 -17.914062 11.09375 -17.96875 L 11.359375 -17.984375 L 12.03125 -17.96875 L 12.3125 -17.984375 L 12.890625 -17.984375 L 15.375 -18.0625 C 15.488281 -18.0625 15.632812 -18.070312 15.8125 -18.09375 C 15.988281 -18.113281 16.160156 -18.128906 16.328125 -18.140625 C 16.378906 -17.859375 16.414062 -17.582031 16.4375 -17.3125 L 16.640625 -14.703125 C 16.640625 -14.421875 16.613281 -14.207031 16.5625 -14.0625 C 16.226562 -14.007812 15.984375 -13.984375 15.828125 -13.984375 C 15.640625 -13.984375 15.488281 -14.023438 15.375 -14.109375 C 15.320312 -14.171875 15.21875 -14.378906 15.0625 -14.734375 C 14.664062 -15.671875 14.332031 -16.222656 14.0625 -16.390625 C 13.789062 -16.566406 13.03125 -16.65625 11.78125 -16.65625 L 9.859375 -16.59375 C 9.046875 -16.582031 8.40625 -16.535156 7.9375 -16.453125 C 7.832031 -16.441406 7.6875 -16.398438 7.5 -16.328125 C 7.375 -16.109375 7.3125 -15.832031 7.3125 -15.5 L 7.359375 -13.84375 L 7.3125 -11.96875 C 7.3125 -11 7.34375 -10.40625 7.40625 -10.1875 C 7.488281 -10.132812 7.5625 -10.101562 7.625 -10.09375 L 8.609375 -10.078125 L 10.265625 -10.078125 C 10.640625 -10.066406 11.210938 -10.109375 11.984375 -10.203125 C 12.503906 -10.265625 12.828125 -10.335938 12.953125 -10.421875 C 13.171875 -10.566406 13.328125 -10.753906 13.421875 -10.984375 C 13.523438 -11.210938 13.597656 -11.765625 13.640625 -12.640625 C 13.691406 -12.640625 13.816406 -12.644531 14.015625 -12.65625 C 14.148438 -12.664062 14.238281 -12.671875 14.28125 -12.671875 C 14.382812 -12.671875 14.585938 -12.65625 14.890625 -12.625 L 14.8125 -10.40625 C 14.800781 -9.9375 14.78125 -9.53125 14.75 -9.1875 L 14.78125 -8.875 C 14.789062 -8.789062 14.796875 -8.109375 14.796875 -6.828125 C 14.796875 -6.742188 14.789062 -6.601562 14.78125 -6.40625 C 14.601562 -6.375 14.460938 -6.359375 14.359375 -6.359375 C 14.285156 -6.359375 14.109375 -6.382812 13.828125 -6.4375 C 13.742188 -6.613281 13.648438 -6.867188 13.546875 -7.203125 C 13.328125 -7.929688 13.09375 -8.359375 12.84375 -8.484375 C 12.40625 -8.703125 11.007812 -8.8125 8.65625 -8.8125 C 8.3125 -8.8125 7.914062 -8.78125 7.46875 -8.71875 C 7.40625 -8.320312 7.375 -7.875 7.375 -7.375 L 7.4375 -3.203125 C 7.445312 -2.429688 7.53125 -1.960938 7.6875 -1.796875 C 7.789062 -1.679688 8.140625 -1.566406 8.734375 -1.453125 L 9 -1.421875 C 9.414062 -1.398438 9.785156 -1.34375 10.109375 -1.25 L 10.484375 -1.171875 C 10.515625 -0.929688 10.53125 -0.742188 10.53125 -0.609375 C 10.53125 -0.472656 10.515625 -0.296875 10.484375 -0.078125 L 10.234375 -0.09375 L 9.796875 -0.078125 L 7.828125 -0.1875 C 7.609375 -0.1875 6.570312 -0.1875 4.71875 -0.1875 C 4.207031 -0.1875 3.722656 -0.160156 3.265625 -0.109375 C 2.535156 -0.0234375 2.132812 0.015625 2.0625 0.015625 C 1.46875 0.015625 1.054688 0.0078125 0.828125 0 Z M 0.828125 0 "/></g></g></g><g fill="#4a9fda" fill-opacity="1"><g transform="translate(100.201739, 334.800328)"><g><path d="M 1.25 -9.296875 C 1.25 -10.441406 1.472656 -11.59375 1.921875 -12.75 C 2.242188 -13.582031 2.695312 -14.34375 3.28125 -15.03125 C 3.863281 -15.726562 4.59375 -16.347656 5.46875 -16.890625 C 6.34375 -17.429688 7.238281 -17.820312 8.15625 -18.0625 C 9.070312 -18.300781 10.097656 -18.421875 11.234375 -18.421875 C 13.148438 -18.421875 14.816406 -18.054688 16.234375 -17.328125 C 17.648438 -16.609375 18.765625 -15.632812 19.578125 -14.40625 C 20.628906 -12.800781 21.15625 -11.125 21.15625 -9.375 C 21.15625 -6.75 20.265625 -4.5 18.484375 -2.625 C 16.710938 -0.757812 14.238281 0.171875 11.0625 0.171875 C 10.269531 0.171875 9.535156 0.117188 8.859375 0.015625 C 8.335938 -0.0546875 7.882812 -0.160156 7.5 -0.296875 C 6.789062 -0.523438 6.394531 -0.65625 6.3125 -0.6875 C 5.300781 -1.257812 4.488281 -1.847656 3.875 -2.453125 C 3.269531 -3.054688 2.753906 -3.738281 2.328125 -4.5 C 2.097656 -4.925781 1.835938 -5.691406 1.546875 -6.796875 C 1.347656 -7.515625 1.25 -8.347656 1.25 -9.296875 Z M 10.703125 -17.046875 C 9.898438 -17.046875 9.1875 -16.859375 8.5625 -16.484375 C 7.945312 -16.109375 7.476562 -15.691406 7.15625 -15.234375 C 6.632812 -14.472656 6.257812 -13.632812 6.03125 -12.71875 C 5.8125 -11.8125 5.703125 -10.703125 5.703125 -9.390625 C 5.703125 -8.597656 5.734375 -8.03125 5.796875 -7.6875 C 5.816406 -7.570312 5.847656 -7.382812 5.890625 -7.125 C 5.972656 -6.4375 6.066406 -5.9375 6.171875 -5.625 C 6.566406 -4.445312 6.847656 -3.71875 7.015625 -3.4375 C 7.296875 -2.96875 7.707031 -2.503906 8.25 -2.046875 C 8.53125 -1.796875 8.929688 -1.570312 9.453125 -1.375 C 9.984375 -1.175781 10.515625 -1.078125 11.046875 -1.078125 C 12.046875 -1.078125 12.972656 -1.3125 13.828125 -1.78125 C 14.679688 -2.25 15.367188 -3.039062 15.890625 -4.15625 C 16.410156 -5.28125 16.671875 -6.738281 16.671875 -8.53125 C 16.671875 -9.269531 16.617188 -10.273438 16.515625 -11.546875 L 16.4375 -11.8125 C 16.414062 -11.882812 16.375 -12.070312 16.3125 -12.375 C 15.96875 -13.894531 15.3125 -15.050781 14.34375 -15.84375 C 13.375 -16.644531 12.160156 -17.046875 10.703125 -17.046875 Z M 10.703125 -17.046875 "/></g></g></g><g fill="#4a9fda" fill-opacity="1"><g transform="translate(122.694676, 334.800328)"><g><path d="M 0.546875 -16.890625 L 0.5 -17.984375 C 0.664062 -17.992188 0.835938 -18 1.015625 -18 C 1.472656 -18 1.957031 -17.984375 2.46875 -17.953125 C 3.6875 -17.890625 4.40625 -17.859375 4.625 -17.859375 C 5.363281 -17.859375 6.085938 -17.875 6.796875 -17.90625 C 7.503906 -17.9375 8.128906 -17.957031 8.671875 -17.96875 C 9.222656 -17.976562 9.597656 -17.988281 9.796875 -18 L 9.78125 -17.828125 L 9.8125 -17.015625 L 9.8125 -16.90625 C 9.289062 -16.832031 8.753906 -16.796875 8.203125 -16.796875 C 7.679688 -16.796875 7.335938 -16.691406 7.171875 -16.484375 C 7.066406 -16.359375 7.015625 -15.804688 7.015625 -14.828125 C 7.015625 -14.535156 7.015625 -14.296875 7.015625 -14.109375 L 7.03125 -13.609375 L 7.015625 -12.3125 L 7.09375 -11.203125 L 7.03125 -8.796875 L 7.21875 -5.3125 C 7.257812 -4.300781 7.476562 -3.460938 7.875 -2.796875 C 8.175781 -2.304688 8.59375 -1.925781 9.125 -1.65625 C 9.90625 -1.257812 10.671875 -1.0625 11.421875 -1.0625 C 12.304688 -1.0625 13.132812 -1.179688 13.90625 -1.421875 C 14.351562 -1.546875 14.78125 -1.753906 15.1875 -2.046875 C 15.59375 -2.335938 15.875 -2.601562 16.03125 -2.84375 C 16.363281 -3.351562 16.59375 -3.832031 16.71875 -4.28125 C 16.894531 -4.882812 16.984375 -5.832031 16.984375 -7.125 C 16.984375 -9.363281 16.863281 -11.882812 16.625 -14.6875 L 16.5625 -15.421875 C 16.539062 -15.960938 16.441406 -16.328125 16.265625 -16.515625 C 15.972656 -16.796875 15.640625 -16.9375 15.265625 -16.9375 L 13.96875 -16.921875 L 13.78125 -16.953125 L 13.8125 -18.015625 L 14.90625 -18.015625 L 17.5625 -17.90625 C 18.445312 -17.90625 19.289062 -17.945312 20.09375 -18.03125 L 20.328125 -18 C 20.390625 -17.695312 20.421875 -17.484375 20.421875 -17.359375 C 20.421875 -17.253906 20.398438 -17.128906 20.359375 -16.984375 C 20.015625 -16.878906 19.65625 -16.820312 19.28125 -16.8125 C 18.65625 -16.726562 18.3125 -16.65625 18.25 -16.59375 C 18.125 -16.488281 18.0625 -16.316406 18.0625 -16.078125 C 18.0625 -15.910156 18.070312 -15.671875 18.09375 -15.359375 C 18.125 -15.128906 18.140625 -14.726562 18.140625 -14.15625 C 18.140625 -13.832031 18.140625 -13.578125 18.140625 -13.390625 C 18.148438 -13.203125 18.160156 -13.015625 18.171875 -12.828125 C 18.191406 -12.160156 18.210938 -11.484375 18.234375 -10.796875 L 18.375 -7.984375 C 18.375 -6.097656 18.304688 -4.832031 18.171875 -4.1875 C 18.046875 -3.550781 17.875 -3.046875 17.65625 -2.671875 C 17.3125 -2.117188 16.820312 -1.609375 16.1875 -1.140625 C 15.5625 -0.671875 14.773438 -0.300781 13.828125 -0.03125 C 12.890625 0.238281 11.789062 0.375 10.53125 0.375 C 9.09375 0.375 7.859375 0.179688 6.828125 -0.203125 C 5.804688 -0.585938 5.035156 -1.09375 4.515625 -1.71875 C 3.992188 -2.34375 3.632812 -3.15625 3.4375 -4.15625 C 3.300781 -4.832031 3.234375 -5.8125 3.234375 -7.09375 L 3.25 -13.71875 C 3.25 -15.28125 3.175781 -16.160156 3.03125 -16.359375 C 2.820312 -16.648438 2.1875 -16.8125 1.125 -16.84375 C 0.894531 -16.84375 0.703125 -16.859375 0.546875 -16.890625 Z M 0.546875 -16.890625 "/></g></g></g><g fill="#4a9fda" fill-opacity="1"><g transform="translate(144.299552, 334.800328)"><g><path d="M 0.15625 -16.953125 L 0.09375 -17.9375 L 1.671875 -17.9375 C 2.234375 -17.96875 2.617188 -17.984375 2.828125 -17.984375 C 2.941406 -17.984375 3.265625 -17.972656 3.796875 -17.953125 C 3.921875 -17.941406 4.023438 -17.9375 4.109375 -17.9375 C 4.191406 -17.9375 4.484375 -17.945312 4.984375 -17.96875 C 5.484375 -17.988281 5.765625 -18 5.828125 -18 C 5.929688 -18 6.078125 -17.992188 6.265625 -17.984375 C 7.679688 -16.691406 8.835938 -15.578125 9.734375 -14.640625 C 10.640625 -13.703125 13.914062 -10.429688 19.5625 -4.828125 L 19.5625 -5.171875 L 19.515625 -6.78125 C 19.484375 -7.726562 19.441406 -8.476562 19.390625 -9.03125 C 19.347656 -9.582031 19.320312 -10.238281 19.3125 -11 C 19.300781 -11.757812 19.269531 -12.453125 19.21875 -13.078125 C 19.101562 -14.285156 19.046875 -14.984375 19.046875 -15.171875 C 19.046875 -15.773438 18.984375 -16.140625 18.859375 -16.265625 C 18.660156 -16.460938 18.21875 -16.613281 17.53125 -16.71875 C 17.019531 -16.800781 16.640625 -16.910156 16.390625 -17.046875 L 16.40625 -17.859375 L 16.765625 -17.90625 L 19.5 -17.984375 L 22.546875 -18.0625 C 22.753906 -18.070312 22.953125 -18.078125 23.140625 -18.078125 L 23.140625 -17.1875 C 22.929688 -17.070312 22.71875 -16.988281 22.5 -16.9375 C 21.90625 -16.789062 21.5625 -16.691406 21.46875 -16.640625 C 21 -16.367188 20.742188 -16.207031 20.703125 -16.15625 C 20.617188 -16.039062 20.578125 -15.867188 20.578125 -15.640625 C 20.578125 -15.585938 20.585938 -15.394531 20.609375 -15.0625 C 20.617188 -14.894531 20.625 -14.503906 20.625 -13.890625 C 20.632812 -12.546875 20.671875 -11.488281 20.734375 -10.71875 C 20.753906 -10.46875 20.769531 -10.179688 20.78125 -9.859375 L 20.921875 -5 C 20.929688 -4.65625 20.9375 -4.414062 20.9375 -4.28125 L 20.9375 -2.5625 L 20.984375 -1.84375 L 20.9375 -1.09375 C 20.976562 -0.71875 21 -0.492188 21 -0.421875 L 21 0.3125 L 19.40625 0.375 L 17.75 -1.328125 L 14.375 -4.671875 L 12.015625 -7.03125 L 10.28125 -8.8125 C 9.15625 -9.925781 8.128906 -10.898438 7.203125 -11.734375 L 4.9375 -13.78125 L 5.0625 -8.625 C 5.070312 -8.300781 5.078125 -7.972656 5.078125 -7.640625 L 5.0625 -6.65625 L 5.15625 -4.84375 C 5.175781 -4.082031 5.222656 -3.257812 5.296875 -2.375 C 5.316406 -2.132812 5.335938 -1.960938 5.359375 -1.859375 C 5.390625 -1.765625 5.445312 -1.625 5.53125 -1.4375 C 5.894531 -1.3125 6.679688 -1.21875 7.890625 -1.15625 C 7.972656 -1.132812 8.09375 -1.101562 8.25 -1.0625 L 8.3125 0.0625 L 7.765625 0.078125 C 7.472656 0.078125 6.539062 0.0078125 4.96875 -0.125 C 3.5 -0.101562 2.519531 -0.0703125 2.03125 -0.03125 C 1.539062 0 1.269531 0.015625 1.21875 0.015625 C 1.113281 0.015625 0.960938 -0.00390625 0.765625 -0.046875 C 0.742188 -0.253906 0.734375 -0.4375 0.734375 -0.59375 C 0.734375 -0.695312 0.738281 -0.863281 0.75 -1.09375 C 1.007812 -1.144531 1.222656 -1.171875 1.390625 -1.171875 C 1.441406 -1.171875 1.617188 -1.160156 1.921875 -1.140625 C 2.703125 -1.140625 3.164062 -1.195312 3.3125 -1.3125 C 3.457031 -1.425781 3.535156 -1.738281 3.546875 -2.25 C 3.617188 -3.71875 3.65625 -4.613281 3.65625 -4.9375 L 3.65625 -5.703125 L 3.671875 -10.21875 L 3.640625 -13.03125 C 3.628906 -14.101562 3.554688 -14.847656 3.421875 -15.265625 C 3.367188 -15.472656 3.265625 -15.660156 3.109375 -15.828125 C 2.785156 -16.160156 2.425781 -16.40625 2.03125 -16.5625 C 1.789062 -16.664062 1.164062 -16.796875 0.15625 -16.953125 Z M 0.15625 -16.953125 "/></g></g></g><g fill="#4a9fda" fill-opacity="1"><g transform="translate(168.277211, 334.800328)"><g><path d="M 0.703125 -1.21875 C 0.847656 -1.257812 1.132812 -1.316406 1.5625 -1.390625 C 2.425781 -1.535156 2.992188 -1.734375 3.265625 -1.984375 C 3.429688 -2.140625 3.535156 -2.441406 3.578125 -2.890625 C 3.585938 -2.992188 3.617188 -4.40625 3.671875 -7.125 L 3.65625 -8.640625 L 3.671875 -10.484375 L 3.625 -15.21875 L 3.640625 -15.78125 C 3.640625 -16.019531 3.570312 -16.203125 3.4375 -16.328125 C 3.375 -16.398438 3.195312 -16.4375 2.90625 -16.4375 C 2.664062 -16.4375 2.382812 -16.40625 2.0625 -16.34375 C 1.65625 -16.332031 1.289062 -16.296875 0.96875 -16.234375 C 0.914062 -16.222656 0.828125 -16.210938 0.703125 -16.203125 L 0.6875 -17.421875 C 1.238281 -17.597656 2.023438 -17.769531 3.046875 -17.9375 C 4.722656 -18.207031 6.789062 -18.34375 9.25 -18.34375 C 11.3125 -18.34375 12.816406 -18.226562 13.765625 -18 C 15.210938 -17.632812 16.390625 -17.097656 17.296875 -16.390625 C 18.503906 -15.429688 19.410156 -14.328125 20.015625 -13.078125 C 20.617188 -11.828125 20.921875 -10.460938 20.921875 -8.984375 C 20.921875 -7.109375 20.515625 -5.503906 19.703125 -4.171875 C 18.890625 -2.835938 17.722656 -1.765625 16.203125 -0.953125 C 15.117188 -0.378906 13.660156 -0.09375 11.828125 -0.09375 L 8.984375 -0.21875 L 8.140625 -0.265625 L 7.015625 -0.234375 L 6.6875 -0.265625 L 5.515625 -0.234375 L 3.984375 -0.25 C 3.929688 -0.25 3.457031 -0.21875 2.5625 -0.15625 C 2.269531 -0.132812 1.882812 -0.117188 1.40625 -0.109375 C 1.101562 -0.109375 0.878906 -0.101562 0.734375 -0.09375 C 0.710938 -0.300781 0.703125 -0.675781 0.703125 -1.21875 Z M 7.4375 -16.6875 C 7.40625 -16.394531 7.390625 -16.191406 7.390625 -16.078125 L 7.4375 -13.71875 L 7.40625 -11.65625 C 7.4375 -10.988281 7.453125 -10.40625 7.453125 -9.90625 L 7.4375 -8.59375 L 7.46875 -6.390625 L 7.4375 -5.03125 C 7.4375 -3.757812 7.671875 -2.894531 8.140625 -2.4375 C 8.828125 -1.789062 9.773438 -1.46875 10.984375 -1.46875 C 11.890625 -1.46875 12.5625 -1.554688 13 -1.734375 C 13.90625 -2.085938 14.625 -2.554688 15.15625 -3.140625 C 15.6875 -3.722656 16.09375 -4.546875 16.375 -5.609375 C 16.65625 -6.679688 16.796875 -7.785156 16.796875 -8.921875 C 16.796875 -10.796875 16.492188 -12.320312 15.890625 -13.5 C 15.296875 -14.6875 14.476562 -15.578125 13.4375 -16.171875 C 12.40625 -16.765625 11.21875 -17.0625 9.875 -17.0625 C 8.9375 -17.0625 8.125 -16.9375 7.4375 -16.6875 Z M 7.4375 -16.6875 "/></g></g></g><g fill="#4a9fda" fill-opacity="1"><g transform="translate(190.478748, 334.800328)"><g><path d="M -0.359375 -0.09375 L -0.328125 -1.046875 C -0.148438 -1.097656 0.15625 -1.164062 0.59375 -1.25 C 1.3125 -1.382812 1.742188 -1.507812 1.890625 -1.625 C 2.046875 -1.738281 2.234375 -2.003906 2.453125 -2.421875 L 5.265625 -9.765625 L 8.546875 -18.40625 C 8.847656 -18.394531 9.140625 -18.390625 9.421875 -18.390625 L 10.046875 -18.390625 L 10.171875 -18.140625 L 12.59375 -12.421875 C 13.132812 -11.210938 13.617188 -10.035156 14.046875 -8.890625 C 14.484375 -7.742188 14.863281 -6.8125 15.1875 -6.09375 C 15.363281 -5.65625 15.617188 -5.003906 15.953125 -4.140625 C 16.117188 -3.660156 16.367188 -3.066406 16.703125 -2.359375 C 16.890625 -1.972656 17.03125 -1.742188 17.125 -1.671875 C 17.289062 -1.535156 17.5625 -1.441406 17.9375 -1.390625 C 18.3125 -1.347656 18.71875 -1.242188 19.15625 -1.078125 C 19.195312 -0.773438 19.21875 -0.550781 19.21875 -0.40625 C 19.21875 -0.34375 19.210938 -0.238281 19.203125 -0.09375 C 18.523438 -0.09375 17.769531 -0.125 16.9375 -0.1875 C 16.113281 -0.257812 15.375 -0.296875 14.71875 -0.296875 C 13.988281 -0.296875 13.460938 -0.285156 13.140625 -0.265625 L 10.78125 -0.140625 L 10.109375 -0.109375 C 10.109375 -0.429688 10.117188 -0.742188 10.140625 -1.046875 L 11.6875 -1.375 C 12.144531 -1.488281 12.410156 -1.582031 12.484375 -1.65625 C 12.578125 -1.75 12.625 -1.851562 12.625 -1.96875 C 12.625 -2.09375 12.601562 -2.21875 12.5625 -2.34375 L 12 -3.703125 L 10.90625 -6.421875 L 5.609375 -6.4375 C 5.410156 -5.988281 5.007812 -4.898438 4.40625 -3.171875 C 4.226562 -2.679688 4.140625 -2.347656 4.140625 -2.171875 C 4.140625 -1.929688 4.203125 -1.765625 4.328125 -1.671875 C 4.546875 -1.492188 4.953125 -1.367188 5.546875 -1.296875 C 5.628906 -1.273438 5.957031 -1.222656 6.53125 -1.140625 C 6.539062 -0.804688 6.546875 -0.570312 6.546875 -0.4375 C 6.546875 -0.34375 6.535156 -0.238281 6.515625 -0.125 C 5.941406 -0.125 4.578125 -0.203125 2.421875 -0.359375 L 1.84375 -0.265625 C 1.15625 -0.148438 0.503906 -0.09375 -0.109375 -0.09375 Z M 6.15625 -7.890625 C 8.320312 -7.867188 9.597656 -7.859375 9.984375 -7.859375 L 10.34375 -7.875 C 10.0625 -8.695312 9.695312 -9.65625 9.25 -10.75 C 8.8125 -11.84375 8.453125 -12.675781 8.171875 -13.25 Z M 6.15625 -7.890625 "/></g></g></g><g fill="#4a9fda" fill-opacity="1"><g transform="translate(209.128039, 334.800328)"><g><path d="M 1.484375 -18.828125 L 2.34375 -18.828125 C 2.40625 -18.722656 2.453125 -18.648438 2.484375 -18.609375 C 2.742188 -18.160156 2.941406 -17.867188 3.078125 -17.734375 C 3.203125 -17.703125 3.835938 -17.6875 4.984375 -17.6875 C 5.691406 -17.6875 6.328125 -17.6875 6.890625 -17.6875 L 7.15625 -17.734375 L 8.84375 -17.75 L 11.984375 -17.71875 L 16.265625 -17.71875 L 17.078125 -17.84375 C 17.203125 -17.925781 17.332031 -18.148438 17.46875 -18.515625 C 17.507812 -18.597656 17.5625 -18.710938 17.625 -18.859375 L 18.234375 -18.875 C 18.328125 -18.875 18.46875 -18.867188 18.65625 -18.859375 C 18.664062 -18.222656 18.671875 -17.257812 18.671875 -15.96875 L 18.671875 -14.03125 C 18.671875 -13.789062 18.648438 -13.582031 18.609375 -13.40625 C 18.234375 -13.28125 17.898438 -13.207031 17.609375 -13.1875 C 17.367188 -13.539062 17.109375 -14.0625 16.828125 -14.75 C 16.546875 -15.4375 16.367188 -15.816406 16.296875 -15.890625 C 16.179688 -16.015625 16.050781 -16.09375 15.90625 -16.125 C 15.6875 -16.175781 14.707031 -16.203125 12.96875 -16.203125 C 12.707031 -16.203125 12.378906 -16.179688 11.984375 -16.140625 C 11.929688 -15.773438 11.90625 -15.476562 11.90625 -15.25 L 11.921875 -13.390625 L 11.921875 -9.3125 L 11.984375 -4.90625 L 11.96875 -3.109375 C 11.96875 -2.472656 12.019531 -1.992188 12.125 -1.671875 C 12.269531 -1.597656 12.546875 -1.535156 12.953125 -1.484375 C 13.023438 -1.472656 13.363281 -1.398438 13.96875 -1.265625 C 14.25 -1.203125 14.492188 -1.128906 14.703125 -1.046875 C 14.753906 -0.710938 14.78125 -0.507812 14.78125 -0.4375 C 14.78125 -0.351562 14.765625 -0.226562 14.734375 -0.0625 C 14.535156 -0.0625 14.367188 -0.0625 14.234375 -0.0625 C 13.285156 -0.0625 12.476562 -0.09375 11.8125 -0.15625 C 11.144531 -0.226562 9.9375 -0.265625 8.1875 -0.265625 C 7.90625 -0.265625 7.09375 -0.207031 5.75 -0.09375 C 5.21875 -0.0625 4.875 -0.046875 4.71875 -0.046875 C 4.707031 -0.179688 4.695312 -0.285156 4.6875 -0.359375 L 4.671875 -0.6875 L 4.671875 -0.796875 C 4.878906 -1.054688 5.265625 -1.253906 5.828125 -1.390625 C 6.785156 -1.617188 7.453125 -1.828125 7.828125 -2.015625 C 7.921875 -2.191406 7.976562 -2.421875 8 -2.703125 C 8.0625 -3.816406 8.09375 -5.582031 8.09375 -8 L 8.015625 -13.25 C 8.015625 -14.695312 7.988281 -15.570312 7.9375 -15.875 C 7.914062 -15.957031 7.878906 -16.019531 7.828125 -16.0625 C 7.785156 -16.101562 7.722656 -16.128906 7.640625 -16.140625 C 7.359375 -16.179688 6.425781 -16.203125 4.84375 -16.203125 C 3.96875 -16.203125 3.382812 -16.117188 3.09375 -15.953125 C 2.695312 -15.710938 2.097656 -15.082031 1.296875 -14.0625 C 1.066406 -13.757812 0.898438 -13.609375 0.796875 -13.609375 C 0.367188 -13.835938 0.09375 -14.019531 -0.03125 -14.15625 C 0.257812 -14.757812 0.660156 -15.960938 1.171875 -17.765625 C 1.316406 -18.296875 1.421875 -18.648438 1.484375 -18.828125 Z M 1.484375 -18.828125 "/></g></g></g><g fill="#4a9fda" fill-opacity="1"><g transform="translate(228.665392, 334.800328)"><g><path d="M 1.140625 -0.078125 L 1.140625 -1.078125 C 1.328125 -1.140625 1.628906 -1.21875 2.046875 -1.3125 C 2.648438 -1.46875 3.101562 -1.625 3.40625 -1.78125 C 3.570312 -2.0625 3.65625 -2.457031 3.65625 -2.96875 L 3.640625 -4.609375 L 3.65625 -7.765625 L 3.65625 -8.515625 C 3.71875 -10.347656 3.75 -11.296875 3.75 -11.359375 L 3.71875 -13.203125 L 3.765625 -13.953125 L 3.6875 -15.53125 L 3.671875 -16.125 C 3.660156 -16.21875 3.628906 -16.363281 3.578125 -16.5625 C 3.203125 -16.738281 2.585938 -16.851562 1.734375 -16.90625 C 1.523438 -16.914062 1.363281 -16.925781 1.25 -16.9375 L 1.203125 -18.171875 L 5.171875 -18 C 5.660156 -17.976562 5.96875 -17.96875 6.09375 -17.96875 C 6.632812 -17.96875 7.507812 -18.003906 8.71875 -18.078125 C 9.394531 -18.128906 9.816406 -18.160156 9.984375 -18.171875 C 9.992188 -17.992188 10 -17.84375 10 -17.71875 C 10 -17.5625 9.992188 -17.359375 9.984375 -17.109375 C 9.609375 -16.984375 9.179688 -16.859375 8.703125 -16.734375 C 8.234375 -16.617188 7.84375 -16.503906 7.53125 -16.390625 C 7.476562 -16.148438 7.453125 -15.800781 7.453125 -15.34375 C 7.453125 -14.945312 7.46875 -14.625 7.5 -14.375 C 7.46875 -12.8125 7.453125 -11.609375 7.453125 -10.765625 L 7.46875 -7.109375 L 7.421875 -5.25 L 7.453125 -2.46875 L 7.4375 -1.9375 C 7.4375 -1.863281 7.457031 -1.757812 7.5 -1.625 C 8.0625 -1.5 8.570312 -1.414062 9.03125 -1.375 C 9.113281 -1.363281 9.394531 -1.328125 9.875 -1.265625 C 9.914062 -0.984375 9.9375 -0.75 9.9375 -0.5625 C 9.9375 -0.46875 9.929688 -0.3125 9.921875 -0.09375 C 9.804688 -0.09375 9.710938 -0.0859375 9.640625 -0.078125 C 9.347656 -0.0664062 9.175781 -0.0625 9.125 -0.0625 C 9.0625 -0.0625 8.941406 -0.0703125 8.765625 -0.09375 C 8.640625 -0.113281 8.023438 -0.179688 6.921875 -0.296875 L 4.46875 -0.3125 C 3.976562 -0.3125 3.265625 -0.269531 2.328125 -0.1875 C 1.722656 -0.125 1.328125 -0.0859375 1.140625 -0.078125 Z M 1.140625 -0.078125 "/></g></g></g><g fill="#4a9fda" fill-opacity="1"><g transform="translate(239.918801, 334.800328)"><g><path d="M 1.25 -9.296875 C 1.25 -10.441406 1.472656 -11.59375 1.921875 -12.75 C 2.242188 -13.582031 2.695312 -14.34375 3.28125 -15.03125 C 3.863281 -15.726562 4.59375 -16.347656 5.46875 -16.890625 C 6.34375 -17.429688 7.238281 -17.820312 8.15625 -18.0625 C 9.070312 -18.300781 10.097656 -18.421875 11.234375 -18.421875 C 13.148438 -18.421875 14.816406 -18.054688 16.234375 -17.328125 C 17.648438 -16.609375 18.765625 -15.632812 19.578125 -14.40625 C 20.628906 -12.800781 21.15625 -11.125 21.15625 -9.375 C 21.15625 -6.75 20.265625 -4.5 18.484375 -2.625 C 16.710938 -0.757812 14.238281 0.171875 11.0625 0.171875 C 10.269531 0.171875 9.535156 0.117188 8.859375 0.015625 C 8.335938 -0.0546875 7.882812 -0.160156 7.5 -0.296875 C 6.789062 -0.523438 6.394531 -0.65625 6.3125 -0.6875 C 5.300781 -1.257812 4.488281 -1.847656 3.875 -2.453125 C 3.269531 -3.054688 2.753906 -3.738281 2.328125 -4.5 C 2.097656 -4.925781 1.835938 -5.691406 1.546875 -6.796875 C 1.347656 -7.515625 1.25 -8.347656 1.25 -9.296875 Z M 10.703125 -17.046875 C 9.898438 -17.046875 9.1875 -16.859375 8.5625 -16.484375 C 7.945312 -16.109375 7.476562 -15.691406 7.15625 -15.234375 C 6.632812 -14.472656 6.257812 -13.632812 6.03125 -12.71875 C 5.8125 -11.8125 5.703125 -10.703125 5.703125 -9.390625 C 5.703125 -8.597656 5.734375 -8.03125 5.796875 -7.6875 C 5.816406 -7.570312 5.847656 -7.382812 5.890625 -7.125 C 5.972656 -6.4375 6.066406 -5.9375 6.171875 -5.625 C 6.566406 -4.445312 6.847656 -3.71875 7.015625 -3.4375 C 7.296875 -2.96875 7.707031 -2.503906 8.25 -2.046875 C 8.53125 -1.796875 8.929688 -1.570312 9.453125 -1.375 C 9.984375 -1.175781 10.515625 -1.078125 11.046875 -1.078125 C 12.046875 -1.078125 12.972656 -1.3125 13.828125 -1.78125 C 14.679688 -2.25 15.367188 -3.039062 15.890625 -4.15625 C 16.410156 -5.28125 16.671875 -6.738281 16.671875 -8.53125 C 16.671875 -9.269531 16.617188 -10.273438 16.515625 -11.546875 L 16.4375 -11.8125 C 16.414062 -11.882812 16.375 -12.070312 16.3125 -12.375 C 15.96875 -13.894531 15.3125 -15.050781 14.34375 -15.84375 C 13.375 -16.644531 12.160156 -17.046875 10.703125 -17.046875 Z M 10.703125 -17.046875 "/></g></g></g><g fill="#4a9fda" fill-opacity="1"><g transform="translate(262.411739, 334.800328)"><g><path d="M 0.15625 -16.953125 L 0.09375 -17.9375 L 1.671875 -17.9375 C 2.234375 -17.96875 2.617188 -17.984375 2.828125 -17.984375 C 2.941406 -17.984375 3.265625 -17.972656 3.796875 -17.953125 C 3.921875 -17.941406 4.023438 -17.9375 4.109375 -17.9375 C 4.191406 -17.9375 4.484375 -17.945312 4.984375 -17.96875 C 5.484375 -17.988281 5.765625 -18 5.828125 -18 C 5.929688 -18 6.078125 -17.992188 6.265625 -17.984375 C 7.679688 -16.691406 8.835938 -15.578125 9.734375 -14.640625 C 10.640625 -13.703125 13.914062 -10.429688 19.5625 -4.828125 L 19.5625 -5.171875 L 19.515625 -6.78125 C 19.484375 -7.726562 19.441406 -8.476562 19.390625 -9.03125 C 19.347656 -9.582031 19.320312 -10.238281 19.3125 -11 C 19.300781 -11.757812 19.269531 -12.453125 19.21875 -13.078125 C 19.101562 -14.285156 19.046875 -14.984375 19.046875 -15.171875 C 19.046875 -15.773438 18.984375 -16.140625 18.859375 -16.265625 C 18.660156 -16.460938 18.21875 -16.613281 17.53125 -16.71875 C 17.019531 -16.800781 16.640625 -16.910156 16.390625 -17.046875 L 16.40625 -17.859375 L 16.765625 -17.90625 L 19.5 -17.984375 L 22.546875 -18.0625 C 22.753906 -18.070312 22.953125 -18.078125 23.140625 -18.078125 L 23.140625 -17.1875 C 22.929688 -17.070312 22.71875 -16.988281 22.5 -16.9375 C 21.90625 -16.789062 21.5625 -16.691406 21.46875 -16.640625 C 21 -16.367188 20.742188 -16.207031 20.703125 -16.15625 C 20.617188 -16.039062 20.578125 -15.867188 20.578125 -15.640625 C 20.578125 -15.585938 20.585938 -15.394531 20.609375 -15.0625 C 20.617188 -14.894531 20.625 -14.503906 20.625 -13.890625 C 20.632812 -12.546875 20.671875 -11.488281 20.734375 -10.71875 C 20.753906 -10.46875 20.769531 -10.179688 20.78125 -9.859375 L 20.921875 -5 C 20.929688 -4.65625 20.9375 -4.414062 20.9375 -4.28125 L 20.9375 -2.5625 L 20.984375 -1.84375 L 20.9375 -1.09375 C 20.976562 -0.71875 21 -0.492188 21 -0.421875 L 21 0.3125 L 19.40625 0.375 L 17.75 -1.328125 L 14.375 -4.671875 L 12.015625 -7.03125 L 10.28125 -8.8125 C 9.15625 -9.925781 8.128906 -10.898438 7.203125 -11.734375 L 4.9375 -13.78125 L 5.0625 -8.625 C 5.070312 -8.300781 5.078125 -7.972656 5.078125 -7.640625 L 5.0625 -6.65625 L 5.15625 -4.84375 C 5.175781 -4.082031 5.222656 -3.257812 5.296875 -2.375 C 5.316406 -2.132812 5.335938 -1.960938 5.359375 -1.859375 C 5.390625 -1.765625 5.445312 -1.625 5.53125 -1.4375 C 5.894531 -1.3125 6.679688 -1.21875 7.890625 -1.15625 C 7.972656 -1.132812 8.09375 -1.101562 8.25 -1.0625 L 8.3125 0.0625 L 7.765625 0.078125 C 7.472656 0.078125 6.539062 0.0078125 4.96875 -0.125 C 3.5 -0.101562 2.519531 -0.0703125 2.03125 -0.03125 C 1.539062 0 1.269531 0.015625 1.21875 0.015625 C 1.113281 0.015625 0.960938 -0.00390625 0.765625 -0.046875 C 0.742188 -0.253906 0.734375 -0.4375 0.734375 -0.59375 C 0.734375 -0.695312 0.738281 -0.863281 0.75 -1.09375 C 1.007812 -1.144531 1.222656 -1.171875 1.390625 -1.171875 C 1.441406 -1.171875 1.617188 -1.160156 1.921875 -1.140625 C 2.703125 -1.140625 3.164062 -1.195312 3.3125 -1.3125 C 3.457031 -1.425781 3.535156 -1.738281 3.546875 -2.25 C 3.617188 -3.71875 3.65625 -4.613281 3.65625 -4.9375 L 3.65625 -5.703125 L 3.671875 -10.21875 L 3.640625 -13.03125 C 3.628906 -14.101562 3.554688 -14.847656 3.421875 -15.265625 C 3.367188 -15.472656 3.265625 -15.660156 3.109375 -15.828125 C 2.785156 -16.160156 2.425781 -16.40625 2.03125 -16.5625 C 1.789062 -16.664062 1.164062 -16.796875 0.15625 -16.953125 Z M 0.15625 -16.953125 "/></g></g></g></svg>